<svg width="22" height="22" viewBox="0 0 22 22" fill="none" xmlns="http://www.w3.org/2000/svg">
<path fill-rule="evenodd" clip-rule="evenodd" d="M19 11C19 15.4183 15.4183 19 11 19C6.58172 19 3 15.4183 3 11C3 6.58172 6.58172 3 11 3C14.012 3 16.6353 4.66458 18 7.12399V4.5H19V9H18.748H17.7101H16H14.5V8H17.3264C16.2029 5.63505 13.7924 4 11 4C7.13401 4 4 7.13401 4 11C4 14.866 7.13401 18 11 18C14.866 18 18 14.866 18 11H19Z" fill="black"/>
<mask id="mask0_3457_174" style="mask-type:luminance" maskUnits="userSpaceOnUse" x="3" y="3" width="16" height="16">
<path fill-rule="evenodd" clip-rule="evenodd" d="M19 11C19 15.4183 15.4183 19 11 19C6.58172 19 3 15.4183 3 11C3 6.58172 6.58172 3 11 3C14.012 3 16.6353 4.66458 18 7.12399V4.5H19V9H18.748H17.7101H16H14.5V8H17.3264C16.2029 5.63505 13.7924 4 11 4C7.13401 4 4 7.13401 4 11C4 14.866 7.13401 18 11 18C14.866 18 18 14.866 18 11H19Z" fill="white"/>
</mask>
<g mask="url(#mask0_3457_174)">
</g>
</svg>
