<svg width="18" height="18" viewBox="0 0 18 18" fill="none" xmlns="http://www.w3.org/2000/svg">
<path fill-rule="evenodd" clip-rule="evenodd" d="M9 15.2C12.4242 15.2 15.2 12.4242 15.2 9H17.2C17.2 13.5287 13.5287 17.2 9 17.2V15.2Z" fill="url(#paint0_linear_26_708)"/>
<path fill-rule="evenodd" clip-rule="evenodd" d="M8 1.79999C8 1.2477 8.44772 0.799988 9 0.799988C13.5287 0.799988 17.2 4.47125 17.2 8.99999H15.2C15.2 5.57582 12.4242 2.79999 9 2.79999C8.44772 2.79999 8 2.35227 8 1.79999Z" fill="url(#paint1_linear_26_708)"/>
<path fill-rule="evenodd" clip-rule="evenodd" d="M6.0963 2.33387C6.38486 2.80478 6.23703 3.42044 5.76612 3.709C3.98492 4.80046 2.80017 6.76227 2.80017 8.9999C2.80017 12.4241 5.57601 15.1999 9.00017 15.1999V17.1999C4.47144 17.1999 0.800171 13.5286 0.800171 8.9999C0.800171 6.03778 2.37144 3.44352 4.72117 2.00369C5.19208 1.71513 5.80775 1.86296 6.0963 2.33387Z" fill="url(#paint2_linear_26_708)"/>
<defs>
<linearGradient id="paint0_linear_26_708" x1="9" y1="15.4" x2="15.4" y2="9" gradientUnits="userSpaceOnUse">
<stop stop-opacity="0.5"/>
<stop offset="1" stop-opacity="0.25"/>
</linearGradient>
<linearGradient id="paint1_linear_26_708" x1="15" y1="7.39999" x2="6.2" y2="3.39999" gradientUnits="userSpaceOnUse">
<stop stop-opacity="0.25"/>
<stop offset="1" stop-opacity="0"/>
</linearGradient>
<linearGradient id="paint2_linear_26_708" x1="9.00017" y1="15.4001" x2="7.00017" y2="1.8001" gradientUnits="userSpaceOnUse">
<stop stop-opacity="0.5"/>
<stop offset="1"/>
</linearGradient>
</defs>
</svg>
