<svg width="95" height="16" viewBox="0 0 95 16" fill="none" xmlns="http://www.w3.org/2000/svg">
<path fill-rule="evenodd" clip-rule="evenodd" d="M39.7649 8.92841C41.4239 9.54022 42.38 9.89279 42.38 11.4667C42.38 12.911 41.3584 13.8445 39.7376 13.8445C38.1163 13.8445 36.9616 12.8665 36.9616 11.2445V11.022H34.608C34.608 14.1776 36.8508 16 39.7376 16C42.6686 16 44.7337 13.8445 44.7337 11.3777C44.7337 10.1111 44.3339 9.311 43.668 8.59989C43.0019 7.88901 42.18 7.44459 40.8033 6.93334L39.9149 6.60025C37.9608 5.86657 37.3391 5.31127 37.3391 4.20002C37.3391 2.93318 38.2717 2.15545 39.7152 2.15545C41.1364 2.15545 42.1358 2.93318 42.1358 4.35561V4.64443H44.4894C44.4894 1.79979 42.6909 0 39.7152 0C36.4731 0 34.9853 2.24442 34.9853 4.2445C34.9853 5.35532 35.3407 6.15562 35.9182 6.86672C36.4952 7.57805 37.2947 8.00011 38.4717 8.44452L39.5376 8.84445L39.7649 8.92841ZM13.812 0.222138L8.21601 9.26666L2.64239 0.222138H0V15.7777H2.22042V3.51076L7.19448 11.5777H9.23753L14.2339 3.51076V15.7777H16.4543V0.222138H13.812ZM29.7098 9.26679V0.222481H31.9527V9.24422C31.9527 13.4892 29.5322 16.0001 25.8904 16.0001C22.2488 16.0001 19.8284 13.4892 19.8284 9.24422V0.222481H22.071V9.26679C22.071 12.0891 23.5366 13.8223 25.8904 13.8223C28.2444 13.8223 29.7098 12.0891 29.7098 9.26679ZM47.5609 15.7778H49.826V0.222481H47.5609V15.7778ZM55.4884 15.7778V3.73353L63.5713 15.7778H66.0584V0.222481H63.8378V12.3332L55.7326 0.222481H53.2678V15.7778H55.4884ZM76.4865 11.4667C76.4865 9.8929 75.5304 9.54027 73.8718 8.92854L73.6442 8.84445L72.5785 8.44452C71.4015 8.00011 70.602 7.57805 70.0247 6.86672C69.4473 6.15562 69.0919 5.35532 69.0919 4.2445C69.0919 2.24442 70.5799 0 73.822 0C76.7975 0 78.5962 1.79979 78.5962 4.64443H76.2424V4.35561C76.2424 2.93318 75.243 2.15545 73.822 2.15545C72.3785 2.15545 71.4459 2.93318 71.4459 4.20002C71.4459 5.31127 72.0676 5.86657 74.0217 6.60025L74.9099 6.93334C76.2866 7.44459 77.1084 7.88901 77.7746 8.59989C78.4407 9.311 78.8403 10.1111 78.8403 11.3777C78.8403 13.8445 76.7751 16 73.8444 16C70.9574 16 68.7146 14.1776 68.7146 11.022H71.0684V11.2445C71.0684 12.8665 72.2231 13.8445 73.8444 13.8445C75.465 13.8445 76.4865 12.911 76.4865 11.4667ZM90.8477 11.4443H83.9195L82.1653 15.7776H79.8778L86.1622 0.222013H88.6049L94.8889 15.7776H92.6017L90.8477 11.4443ZM87.3835 2.88904L84.8077 9.24451H89.9593L87.3835 2.88904Z" fill="black"/>
</svg>
